<svg width="41" height="40" viewBox="0 0 41 40" fill="none" xmlns="http://www.w3.org/2000/svg">
<path d="M24.5498 7.5H9.62935C8.94302 7.5 8.38599 8.06 8.38599 8.75C8.38599 9.44 8.94302 10 9.62935 10H24.5498C25.2361 10 25.7931 9.44 25.7931 8.75C25.7931 8.06 25.2361 7.5 24.5498 7.5Z" fill="#2352DE"/>
<path d="M19.5763 12.5H9.62936C8.94302 12.5 8.38599 13.06 8.38599 13.75C8.38599 14.44 8.94302 15 9.62936 15H19.5763C20.2626 15 20.8197 14.44 20.8197 13.75C20.8197 13.06 20.2626 12.5 19.5763 12.5Z" fill="#2352DE"/>
<path d="M28.2799 0H5.89926C3.15638 0 0.925781 2.2425 0.925781 5V30C0.925781 30.485 1.2043 30.9275 1.64196 31.1325C1.80857 31.21 1.9901 31.25 2.16915 31.25C2.45512 31.25 2.73861 31.15 2.96491 30.96L10.0795 25H28.2799C31.0228 25 33.2534 22.7575 33.2534 20V5C33.2534 2.2425 31.0228 0 28.2799 0ZM30.7666 20C30.7666 21.3775 29.6526 22.5 28.2799 22.5H9.62936C9.33841 22.5 9.05741 22.6025 8.83361 22.79L3.41252 27.3325V5C3.41252 3.6225 4.52658 2.5 5.89926 2.5H28.2799C29.6526 2.5 30.7666 3.6225 30.7666 5V20Z" fill="#2352DE"/>
<path d="M35.7401 10C35.0537 10 34.4967 10.56 34.4967 11.25C34.4967 11.94 35.0537 12.5 35.7401 12.5C37.1127 12.5 38.2268 13.6225 38.2268 15V36.1475L34.0292 32.7725C33.8103 32.5975 33.5343 32.5 33.2533 32.5H15.8462C14.4735 32.5 13.3594 31.3775 13.3594 30V28.75C13.3594 28.06 12.8024 27.5 12.116 27.5C11.4297 27.5 10.8727 28.06 10.8727 28.75V30C10.8727 32.7575 13.1033 35 15.8462 35H32.8157L38.6918 39.7275C38.9181 39.9075 39.1941 40 39.4702 40C39.6517 40 39.8357 39.96 40.0098 39.8775C40.44 39.6675 40.7135 39.23 40.7135 38.75V15C40.7135 12.2425 38.4829 10 35.7401 10Z" fill="#2352DE"/>
</svg>
