<svg width="40" height="40" viewBox="0 0 40 40" fill="none" xmlns="http://www.w3.org/2000/svg">
<path d="M24.8307 0.53954L23.5052 0.0442573C23.3346 -0.03329 23.1665 -0.00890299 23.0031 0.117213C22.8391 0.243432 22.7284 0.432913 22.6715 0.68535L14.6991 38.2946C14.6422 38.5471 14.66 38.7853 14.7526 39.0083C14.8452 39.2318 14.984 39.3823 15.1695 39.4598L16.4946 39.9553C16.6656 40.0335 16.8331 40.009 16.9969 39.8827C17.1609 39.7558 17.2714 39.567 17.3282 39.3149L25.3008 1.7051C25.3576 1.45266 25.34 1.21451 25.2472 0.990947C25.1545 0.767488 25.016 0.616986 24.8307 0.53954Z" fill="#2352DE"/>
<path d="M12.6667 7.16196C12.6667 6.90147 12.594 6.67079 12.449 6.47053L11.3606 4.96743C11.2156 4.76707 11.0486 4.66663 10.86 4.66663C10.6715 4.66663 10.5044 4.76718 10.3595 4.96743L0.217709 18.9754C0.0724171 19.1758 0 19.4064 0 19.6668C0 19.9273 0.0726458 20.1579 0.217709 20.3582L10.3594 34.3661C10.5044 34.5668 10.6711 34.6666 10.86 34.6666C11.0489 34.6666 11.2156 34.5665 11.3606 34.3661L12.4489 32.8639C12.5939 32.6636 12.6666 32.4329 12.6666 32.1721C12.6666 31.912 12.5939 31.6814 12.4489 31.4811L3.89581 19.6668L12.449 7.85339C12.5942 7.65313 12.6667 7.42244 12.6667 7.16196Z" fill="#2352DE"/>
<path d="M39.7825 18.9753L29.6398 4.96743C29.4948 4.76718 29.3278 4.66663 29.1395 4.66663C28.9506 4.66663 28.7842 4.76718 28.6386 4.96743L27.5507 6.47041C27.4057 6.67077 27.3334 6.90103 27.3334 7.16183C27.3334 7.42262 27.4056 7.65299 27.5507 7.85325L36.1046 19.6669L27.5507 31.4812C27.4057 31.6814 27.3334 31.9121 27.3334 32.1722C27.3334 32.4331 27.4056 32.6636 27.5507 32.8639L28.6386 34.3661C28.7842 34.5668 28.9507 34.6666 29.1395 34.6666C29.3279 34.6666 29.4948 34.5665 29.6398 34.3661L39.7825 20.3584C39.9275 20.1582 40 19.9272 40 19.6667C40 19.4061 39.9275 19.1755 39.7825 18.9753Z" fill="#2352DE"/>
</svg>
