<svg width="92" height="80" viewBox="0 0 92 80" fill="none" xmlns="http://www.w3.org/2000/svg">
<path d="M45.9192 31.2107C54.524 31.2107 61.5246 24.2102 61.5246 15.6054C61.5246 7.00053 54.524 0 45.9192 0C37.3144 0 30.3138 7.00053 30.3138 15.6054C30.3138 24.2102 37.3144 31.2107 45.9192 31.2107ZM45.9192 5.38116C51.5569 5.38116 56.1434 9.9677 56.1434 15.6054C56.1434 21.243 51.5569 25.8296 45.9192 25.8296C40.2815 25.8296 35.695 21.243 35.695 15.6054C35.695 9.9677 40.2815 5.38116 45.9192 5.38116Z" fill="#2352DE"/>
<path d="M77.4887 31.2104C82.9285 31.2104 87.3541 26.7848 87.3541 21.3449C87.3541 15.9051 82.9285 11.4795 77.4887 11.4795C72.0489 11.4795 67.6232 15.9051 67.6232 21.3449C67.6232 26.7848 72.0489 31.2104 77.4887 31.2104ZM77.4887 16.8606C79.9613 16.8606 81.973 18.8723 81.973 21.3449C81.973 23.8176 79.9613 25.8292 77.4887 25.8292C75.016 25.8292 73.0044 23.8176 73.0044 21.3449C73.0044 18.8723 75.016 16.8606 77.4887 16.8606Z" fill="#2352DE"/>
<path d="M79.6591 37H75.4976C70.5938 37 66.3606 39.8972 64.4317 44.0586C60.4602 39.7232 54.7556 37 48.4267 37H43.412C37.083 37 31.3784 39.7232 27.407 44.0586C25.4778 39.8972 21.2446 37 16.3408 37H12.1794C5.46367 37 0 42.4307 0 49.1058V68.695C0 71.593 2.36663 73.9506 5.27569 73.9506H21.7289C22.0048 77.1614 24.7047 79.6905 27.986 79.6905H63.8526C67.1337 79.6905 69.8336 77.1614 70.1097 73.9506H86.3749C89.3877 73.9506 91.8386 71.5094 91.8386 68.5085V49.1058C91.8384 42.4307 86.3748 37 79.6591 37V37ZM5.38116 49.1058C5.38116 45.3978 8.43084 42.3812 12.1794 42.3812H16.3408C20.0893 42.3812 23.139 45.3978 23.139 49.1058V50.9481C21.3297 55.6592 21.704 58.4825 21.704 68.5695H5.38116V49.1058ZM64.7533 73.4087C64.7533 73.9054 64.3493 74.3094 63.8526 74.3094H27.9858C27.4891 74.3094 27.0852 73.9052 27.0852 73.4087V58.7079C27.0852 49.7053 34.4093 42.3812 43.4118 42.3812H48.4265C57.4291 42.3812 64.7533 49.7053 64.7533 58.7078V73.4087ZM86.4573 68.5085C86.4573 68.6012 87.4603 68.5695 70.1344 68.5695C70.1344 58.4079 70.5059 55.6514 68.6994 50.9481V49.1058C68.6994 45.3978 71.7491 42.3812 75.4976 42.3812H79.6591C83.4076 42.3812 86.4573 45.3978 86.4573 49.1058V68.5085Z" fill="#2352DE"/>
<path d="M14.3497 31.2104C19.7896 31.2104 24.2152 26.7848 24.2152 21.3449C24.2152 15.9051 19.7896 11.4795 14.3497 11.4795C8.90993 11.4795 4.48428 15.9051 4.48428 21.3449C4.48428 26.7848 8.90993 31.2104 14.3497 31.2104ZM14.3497 16.8606C16.8224 16.8606 18.834 18.8723 18.834 21.3449C18.834 23.8176 16.8224 25.8292 14.3497 25.8292C11.8771 25.8292 9.86544 23.8176 9.86544 21.3449C9.86544 18.8723 11.8771 16.8606 14.3497 16.8606Z" fill="#2352DE"/>
</svg>
